<svg xmlns="http://www.w3.org/2000/svg" viewBox="0 0 256 256" aria-hidden="true">
  <path fill="#2684FF" d="M244.658 0H121.707a55.502 55.502 0 0 0 55.502 55.502h22.649V123.3c-.02 30.625-24.829 55.455-55.454 55.478h-48.3v48.098c.036 41.182 33.594 74.522 74.801 74.362H256V55.417C256.016 24.787 231.175-.011 200.589 0h44.069z"/>
  <path fill="#2684FF" d="M55.502 0H0v200.174c-.028 30.644 24.823 55.484 55.502 55.486h44.07v-48.1c-.023-30.65 24.8-55.493 55.457-55.52h49.253V55.503C204.262 24.845 179.402.016 148.733 0H55.502z"/>
</svg>
