<?xml version="1.0" encoding="UTF-8"?>
<svg width="130px" height="24px" viewBox="0 0 130 24" version="1.1" xmlns="http://www.w3.org/2000/svg" xmlns:xlink="http://www.w3.org/1999/xlink">
    <title>Logo</title>
    <g id="Symbols" stroke="none" stroke-width="1" fill="none" fill-rule="evenodd">
        <g id="Menu/Noir_B" transform="translate(0.000000, -7.000000)">
            <g id="Logo_BLANC" transform="translate(0.000000, 7.000000)">
                <g id="links" transform="translate(91.113537, 0.827586)" stroke-linecap="round" stroke-linejoin="round" stroke-width="1.27729258">
                    <g id="Group" stroke="#00F6FA">
                        <line x1="12.171179" y1="0.0634482759" x2="0.184497817" y2="17.3682759" id="Path"/>
                        <line x1="12.171179" y1="0.0634482759" x2="6.86048035" y2="22.2537931" id="Path"/>
                        <line x1="0.184497817" y1="5.74344828" x2="6.86048035" y2="22.2537931" id="Path"/>
                        <line x1="12.171179" y1="0.0634482759" x2="24.189083" y2="17.3682759" id="Path"/>
                    </g>
                    <line x1="0.184497817" y1="17.3682759" x2="0.184497817" y2="5.74344828" id="Path" stroke="#006482"/>
                    <line x1="0.184497817" y1="5.74344828" x2="24.189083" y2="17.3682759" id="Path" stroke="#006482"/>
                    <line x1="24.189083" y1="17.3682759" x2="24.189083" y2="5.74344828" id="Path" stroke="#006482"/>
                </g>
                <g id="txt" fill="#000814" fill-rule="nonzero">
                    <path d="M119.676638,14.9682759 L121.768559,14.9682759 C121.788428,16.3475862 122.929476,17.4510345 124.842576,17.4510345 C126.477511,17.4510345 127.601528,16.7227586 127.601528,15.52 C127.601528,11.897931 120.133624,14.5793103 120.133624,9.17517241 C120.133624,7.14758621 121.808297,5.44275862 124.723362,5.44275862 C127.087773,5.44275862 129.415284,6.66758621 129.452183,9.46482759 L127.326201,9.46482759 C127.306332,8.14344828 126.378166,7.29931034 124.703493,7.29931034 C123.028821,7.29931034 122.239738,8.17931034 122.239738,9.13931034 C122.239738,12.3751724 129.770087,9.94206897 129.770087,15.3627586 C129.770087,17.6027586 127.936463,19.3462069 124.782969,19.3462069 C121.825328,19.3351724 119.676638,17.5531034 119.676638,14.9682759 Z" id="Path"/>
                    <rect id="Rectangle" x="90.3812227" y="5.68" width="1.83078603" height="1.77931034"/>
                    <rect id="Rectangle" x="114.388646" y="5.68" width="1.83078603" height="1.77931034"/>
                    <rect id="Rectangle" x="102.367904" y="0" width="1.83078603" height="1.77931034"/>
                    <rect id="Rectangle" x="97.0572052" y="22.1903448" width="1.83078603" height="1.77931034"/>
                    <rect id="Rectangle" x="90.3812227" y="17.3075862" width="1.83078603" height="1.77931034"/>
                    <rect id="Rectangle" x="114.388646" y="17.3075862" width="1.83078603" height="1.77931034"/>
                    <path d="M0,5.68 L5.12336245,5.68 C7.70633188,5.68 9.5371179,7.33517241 9.5371179,9.8537931 C9.5371179,12.3724138 7.6268559,14.0882759 5.12336245,14.0882759 L2.12882096,14.0882759 L2.12882096,19.0868966 L0,19.0868966 L0,5.68 Z M4.90764192,12.3006897 C6.38362445,12.3006897 7.37139738,11.2662069 7.37139738,9.84827586 C7.40345011,9.2044201 7.15408637,8.57737661 6.68482223,8.12183206 C6.21555809,7.66628751 5.57008712,7.42465804 4.90764192,7.45655172 L2.12882096,7.45655172 L2.12882096,12.3062069 L4.90764192,12.3006897 Z" id="Shape"/>
                    <polygon id="Path" points="39.2355895 5.68 41.3445415 5.68 41.3445415 17.3048276 47.4216157 17.3048276 47.4216157 19.0868966 39.2355895 19.0868966"/>
                    <polygon id="Path" points="50.9469432 17.3048276 54.1657205 17.3048276 54.1657205 7.46206897 50.9469432 7.46206897 50.9469432 5.68 59.5133188 5.68 59.5133188 7.46206897 56.2746725 7.46206897 56.2746725 17.3048276 59.5133188 17.3048276 59.5133188 19.0868966 50.9469432 19.0868966"/>
                    <polygon id="Path" points="80.0010917 17.3048276 80.0010917 13.1862069 85.2067686 13.1862069 85.2067686 11.4068966 80.0010917 11.4068966 80.0010917 11.3875862 80.0010917 7.46206897 86.0526201 7.46206897 86.0526201 5.68 77.8751092 5.68 77.8751092 19.0868966 86.2683406 19.0868966 86.2683406 17.3048276"/>
                    <polygon id="Path" points="28.8554585 17.3048276 28.8554585 13.1862069 34.0611354 13.1862069 34.0611354 11.4068966 28.8554585 11.4068966 28.8554585 11.3875862 28.8554585 7.46206897 34.9041485 7.46206897 34.9041485 5.68 26.7266376 5.68 26.7266376 19.0868966 35.1227074 19.0868966 35.1227074 17.3048276"/>
                    <path d="M13.0227074,5.68 L17.9672489,5.68 C20.8056769,5.68 22.5995633,7.36551724 22.5995633,9.79862069 C22.6257781,11.5248165 21.5327516,13.0807132 19.8689956,13.6855172 L22.9316594,19.0868966 L20.6098253,19.0868966 L17.7912664,13.9917241 L15.1316594,13.9917241 L15.1316594,19.0868966 L13.0227074,19.0868966 L13.0227074,5.68 Z M17.8820961,12.1903448 C19.3183406,12.1903448 20.4366812,11.3875862 20.4366812,9.79862069 C20.4366812,8.4937931 19.5113537,7.46206897 17.8168122,7.46206897 L15.1316594,7.46206897 L15.1316594,12.1903448 L17.8820961,12.1903448 Z" id="Shape"/>
                    <path d="M67.7674672,13.4813793 L71.281441,13.4813793 L71.281441,14.3944828 C71.281441,15.9062069 70.2965066,17.3627586 68.1875546,17.3627586 C66.0786026,17.3627586 65.0936681,15.9062069 65.0936681,14.3944828 L65.0936681,10.3724138 C65.0936681,8.87724138 66.180786,7.40413793 68.269869,7.40413793 C69.9104803,7.40413793 70.8783843,8.31448276 71.2189956,9.4262069 L73.3762009,9.4262069 C72.9958515,7.09517241 71.0259825,5.43172414 68.2670306,5.43172414 C65.1930131,5.43172414 63.0017467,7.49793103 63.0017467,10.2565517 L63.0017467,14.5075862 C63.0017467,17.2662069 65.1106987,19.3351724 68.1847162,19.3351724 C71.2587336,19.3351724 73.3676856,17.2662069 73.3676856,14.5075862 L73.3676856,11.6993103 L67.7674672,11.6993103 L67.7674672,13.4813793 Z" id="Path"/>
                </g>
            </g>
        </g>
    </g>
</svg>